<svg width="18" height="19" viewBox="0 0 18 19" fill="none" xmlns="http://www.w3.org/2000/svg">
<path d="M8.99968 16.777L7.85952 15.6371L7.84007 15.6177L7.81947 15.5995C5.57822 13.6171 3.96231 12.1535 2.80335 10.7429L2.80316 10.7427C1.44879 9.0954 0.9 7.70555 0.9 6.32507C0.9 3.80839 2.85833 1.84995 5.37645 1.84995C6.47225 1.84995 7.56836 2.25245 8.42855 2.95942L8.9999 3.429L9.57134 2.95952C10.432 2.25241 11.5282 1.84995 12.6236 1.84995C15.1417 1.84995 17.1 3.80839 17.1 6.32507C17.1 7.70545 16.5513 9.09518 15.1958 10.7419L15.1954 10.7424C14.0356 12.1531 12.4202 13.6165 10.1791 15.5992L10.1583 15.6175L10.1388 15.6371L8.99968 16.777Z" stroke="black" stroke-width="1.8"/>
</svg>
